<svg xmlns="http://www.w3.org/2000/svg" viewBox="0 0 612 792"><g fill="#DBB525"><path d="M11.7 568.3c-5.2-13.3-8.5-27-10.1-42.7 0-1.2-.4-2-.4-3.2L.8 520v-25.8l.8-4.8c.8-3.6 1.2-7.7 2-11.3 4.8-27.4 16.1-52.7 33-74.9 21.7-28.6 49.5-48.3 81.7-58.8 5.6-2 11.3-3.2 16.9-4.4 2.4-.4 4.4-.8 6.8-1.6-19.3-63.6-8.9-121.2 31.4-170.7 24.2-29.8 62.8-51.5 98.6-56l1.6 7.7-2.4.8c-1.6.4-3.2 1.2-4.8 1.6-44.7 15.3-72.5 45.9-82.9 89.8-8.5 36.2-1.6 70.1 20.1 100.7 13.7 19.3 33 33.8 57.2 42.7 10.9 4 21.7 6.8 33 8.1.8 0 2 .4 2.8.8l4 1.2v32.2l-2.8.8c-11.3 2.8-18.9 8.5-23.4 16.5-4.4 8.5-5.2 17.7-2.4 29.4l.8 2.8-6 3.6c-2.4 1.6-5.2 3.2-7.6 4.4-2.4 1.6-4.8 2.8-7.2 4.4l-6.8 4-4-4.8c-1.6-2-2.8-3.6-4.4-5.2-18.1-21.7-38.7-35.8-62.8-43.5-25.8-8.1-51.5-7.2-77.3 2-26.6 9.7-47.5 26.6-63.2 49.9-9.3 14.1-15.3 30.6-18.1 48.3-2.4 17.3-1.2 37.4 3.6 55.6l-7.3 2.8zM8.5 495v8.9c3.2-16.9 9.3-32.6 18.5-47.1 16.5-25 39.1-42.7 66.8-53.1 27.4-10.1 55.2-10.9 82.5-2 25.4 8.1 47.9 23.4 66.8 45.9 1.6 1.6 2.8 3.6 4.4 5.2l.8-.4c2.4-1.6 4.8-2.8 7.2-4.4 2.4-1.6 4.8-2.8 7.6-4.4l1.2-.8c-2.8-12.1-1.6-22.5 3.6-32.2 5.2-9.7 13.3-16.1 25.4-19.7V371c-12.1-1.6-23.8-4.4-35-8.5-25.8-9.7-46.3-25-60.8-45.5-23.4-32.6-30.2-68.4-21.3-107.1 6.8-29.4 20.9-52.7 41.9-70.1-13.7 8.1-27 18.9-38.3 33-39.1 48.3-48.7 104.7-28.6 167.5l1.2 4-5.6 1.2c-.8 0-1.6.4-2 .4-2.4.8-5.2 1.2-7.7 1.6-5.6 1.2-10.9 2.4-16.5 4-31 10.1-57.2 29-78.1 56-16.5 21.3-27 45.5-31.8 71.3-.8 3.6-1.2 7.6-2 11.3l-.2 4.9zM601.9 565.9l-8.9-1.6.8-5.2c0-1.2.4-2 .4-3.2 4.4-20.5 4.8-38.7.4-56-12.5-49.1-43.5-80.1-92.6-93-39.1-10.1-75.3-1.2-107.9 26.2-5.2 4.4-10.1 9.7-14.9 14.9-2 2.4-4.4 4.8-6.4 6.8-.8.8-1.6 2-2.4 2.8l-3.6 4.4-28.2-16.1.8-2.8c3.2-10.9 2.4-20.5-2.4-28.6-4.8-8.1-12.5-13.3-24.2-16.5l-2.8-1.2v-32.2l4.8-.8c1.2-.4 2.8-.4 4-.8 29-4.4 51.9-14.9 71.3-31.8 21.3-18.9 34.2-42.7 39.1-71.7 3.6-22.5 1.2-45.1-7.2-66.8-8.9-22.9-24.2-41.9-45.1-56-11.3-7.7-40.7-19.3-41.1-19.3l2.4-7.6c54 11.3 93.8 40.3 119.2 85.8 25.4 45.9 29.4 93.4 12.1 142.1 2.8.8 6 1.2 8.9 2 54.8 14.5 94.2 47.5 118.4 97.4 7.7 16.5 12.5 34.2 14.5 52.7 0 .8.4 1.2.4 2 0 .4.4.8.4 1.2V518.4c-.4 2-.4 4-.8 5.6-.8 4.4-1.2 8.9-2.4 13.3-1.2 5.6-2.8 11.3-4 16.9-.4 2.4-1.2 4.8-1.6 6.8l-1.4 4.9zM471.5 394.8c10.9 0 21.7 1.6 32.6 4.4 51.9 13.7 85 46.7 98.2 98.6l1.2 6v-8.5-.8c-.4-.8-.4-2-.8-3.2-1.6-17.7-6-34.6-13.7-50.3-22.9-47.9-60.8-79.3-113.1-93.4-2.8-.8-5.6-1.6-8.9-2-1.6-.4-2.8-.8-4.4-.8l-4.4-1.2 1.6-4.4c18.1-47.9 14.9-95-10.1-139.7-14.1-25.8-33.4-45.9-57.2-60 16.1 13.7 28.2 30.6 35.8 50.7 9.3 22.9 11.7 47.1 7.6 71.3-4.8 30.6-18.9 56-41.5 76.1-20.1 18.1-44.7 29-75.3 33.8-.8 0-1.6.4-2.4.4v19.7c11.7 4 20.5 10.1 25.8 19.3 5.6 9.3 7.2 20.1 4.4 32.2l17.3 9.7c.8-.8 1.2-1.6 2-2.4 2-2.4 4.4-4.4 6.4-6.8 4.8-5.2 10.1-10.9 15.7-15.7 26.4-22.5 54.2-33 83.2-33zM447.3 681.5h-20.1l-1.2-.4c-.8 0-1.6-.4-2.4-.4-2.4-.4-4.8-.8-7.2-.8-4.8-.8-10.1-1.2-15.3-2.4-39.5-8.5-71.3-27.8-95.4-57.2-.8.8-1.2 1.6-2 2-27 29.8-60.8 48.7-99.9 56-4.4.8-8.9 1.6-13.3 2-2 .4-4 .4-6 .8H159c-2-.4-4-.8-6-.8-4.4-.8-8.9-1.2-13.3-2-33.8-6.4-67.6-26.6-95-56l5.6-5.6c1.6 1.2 2.8 2.4 4 3.6 2.8 2.4 6 5.2 8.9 7.2 24.2 18.5 51.1 27.4 80.5 26.2 25.4-1.2 49.1-9.7 70.1-25 19.7-14.5 33.8-33.4 41.9-56 6.4-17.7 8.5-36.6 6-56.4-1.6-12.1-4.4-24.6-9.3-36.6-.4-1.2-.8-2.4-1.6-4l-2-5.6 28.2-16.5 2 2c8.5 8.5 16.9 12.5 26.6 12.1 9.3-.4 17.7-4.4 26.6-12.5l2-2 27.4 15.7-1.2 3.2c-.8 2.8-1.6 5.2-2.8 7.6-2 5.2-3.6 10.5-4.8 15.7-12.9 50.7-.4 93.4 36.6 126.8 20.1 18.1 44.7 28.6 72.5 30.6 31 2.4 59.6-6 85.8-25.8 3.6-2.8 7.2-5.6 10.9-8.9 2.4-2 4.4-4 6.8-5.6l5.6 5.6c-9.3 11.3-20.1 21.7-32.2 30.2-24.6 17.7-51.9 28.2-82.5 31.8-2 .4-4 .4-6 .8l-3 .6zm-18.9-8.1h18.5l2.4-.4c2-.4 4-.4 6-.8 21.3-2.4 41.1-8.9 59.6-18.5-16.9 6-34.6 8.1-53.1 6.4-29.8-2.4-56-13.3-77.3-32.6-39.5-35.8-52.7-80.9-39.1-134.9 1.2-5.6 3.2-10.9 5.2-16.5.4-1.6 1.2-2.8 1.6-4.4l-16.9-9.7c-9.7 8.5-18.9 12.5-29.8 12.9-10.9.4-20.9-3.6-30.2-12.5L258 472.5c.4 1.2.8 2 1.2 3.2 5.2 12.9 8.5 25.8 10.1 38.7 2.4 20.9.4 41.5-6.4 60-8.9 24.2-23.8 44.3-44.7 59.6-22.1 16.5-47.1 25.4-74.5 26.6-15.3.8-29.8-1.2-43.5-5.6 13.3 6.8 27 12.1 40.7 14.5 4.4.8 8.9 1.6 12.9 2 2 .4 4 .4 5.6.8h23.4c2-.4 4-.4 5.6-.8 4.4-.8 8.9-1.2 12.9-2 37.4-7.2 69.7-25 95.4-53.6 1.2-1.2 2-2.4 3.2-3.6l4.8-5.2 3.6 4c.4.4.8 1.2 1.6 1.6 22.9 28.6 54 47.5 92.2 55.6 4.8 1.2 9.7 1.6 14.5 2.4 2.4.4 4.8.8 7.2.8.8 0 2 .4 2.8.4l1.8 1.5z"/><path d="M367.6 583.2l-12.5-43.9 2.4-1.6c44.7-27.4 66-64.4 64-112.3v-3.2l45.5-12.1.8 4.4c9.7 59.6-24.6 140.1-96.2 166.7l-4 2zm-3.2-40.2l8.5 29.8c63.6-26.2 94.2-97.4 87.8-152.2l-31 8.1c1.1 48.6-20.6 86.1-65.3 114.3zM244.4 582.4l-4-1.6c-65.2-24.6-108.7-99.5-96.6-166.7l.8-4 43.9 10.9v3.2c1.2 52.3 22.5 89 65.2 111.5l2.8 1.6-12.1 45.1zM151 419.8c-9.7 65.6 36.6 130 88.2 152.2l8.5-30.6c-42.7-23.8-64.4-61.2-66.4-113.9l-30.3-7.7zM239.6 337.2l-34.2-33.4 3.6-2.8c55.2-43.9 139.7-43.9 192.5 0l3.2 2.8-31.4 32.6-2.8-1.6c-46.3-25-88.2-25-128.4 0l-2.5 2.4zm-22.2-32.6l22.9 22.5c41.1-24.6 84.1-24.6 131.3 0L393 305c-48.7-38.2-124-38.2-175.6-.4z"/></g></svg>